<svg xmlns="http://www.w3.org/2000/svg" viewBox="0 0 64 64" role="img" aria-label="black img icon">
  <defs>
    <linearGradient id="shell" x1="9" y1="5" x2="58" y2="61" gradientUnits="userSpaceOnUse">
      <stop offset="0" stop-color="#20252a"/>
      <stop offset="0.42" stop-color="#07090b"/>
      <stop offset="1" stop-color="#000"/>
    </linearGradient>
    <linearGradient id="rim" x1="12" y1="8" x2="53" y2="58" gradientUnits="userSpaceOnUse">
      <stop offset="0" stop-color="#f4f7f8" stop-opacity="0.54"/>
      <stop offset="0.28" stop-color="#9fb5bf" stop-opacity="0.15"/>
      <stop offset="0.72" stop-color="#050607" stop-opacity="0"/>
      <stop offset="1" stop-color="#fff" stop-opacity="0.18"/>
    </linearGradient>
    <linearGradient id="blade" x1="21" y1="12" x2="48" y2="52" gradientUnits="userSpaceOnUse">
      <stop offset="0" stop-color="#f7fbfc" stop-opacity="0.92"/>
      <stop offset="0.48" stop-color="#8fb9bd" stop-opacity="0.58"/>
      <stop offset="1" stop-color="#1e2429" stop-opacity="0.1"/>
    </linearGradient>
    <filter id="softShadow" x="-30%" y="-30%" width="160%" height="160%">
      <feDropShadow dx="0" dy="7" stdDeviation="5" flood-color="#000" flood-opacity="0.42"/>
    </filter>
    <filter id="glow" x="-60%" y="-60%" width="220%" height="220%">
      <feGaussianBlur stdDeviation="1.2" result="blur"/>
      <feMerge>
        <feMergeNode in="blur"/>
        <feMergeNode in="SourceGraphic"/>
      </feMerge>
    </filter>
  </defs>
  <rect x="4" y="4" width="56" height="56" rx="14" fill="url(#shell)" filter="url(#softShadow)"/>
  <rect x="5.5" y="5.5" width="53" height="53" rx="12.5" fill="none" stroke="url(#rim)" stroke-width="1"/>
  <path d="M16 18.5c0-1.38 1.12-2.5 2.5-2.5H31c8.8 0 15.5 6.32 15.5 15.65S39.55 47.7 30.25 47.7H18.5A2.5 2.5 0 0 1 16 45.2V18.5Zm11.2 9.45v9.98h3.1c3.34 0 5.55-1.9 5.55-5.02 0-3.08-2.14-4.96-5.45-4.96h-3.2Z" fill="#eef3f4" fill-opacity="0.94"/>
  <path d="M27.2 18.8v9.15H16v-9.45c0-1.38 1.12-2.5 2.5-2.5h6.2a2.5 2.5 0 0 1 2.5 2.8Z" fill="#050607" fill-opacity="0.56"/>
  <path d="M47.4 19.2c0-1.74 1.4-3.15 3.15-3.15s3.15 1.41 3.15 3.15-1.41 3.14-3.15 3.14-3.15-1.4-3.15-3.14Zm.62 9.02h5.08V47.7h-5.08V28.22Z" fill="#eef3f4" fill-opacity="0.92"/>
  <path d="M19.6 49.2 47.9 14.8" stroke="url(#blade)" stroke-width="2.1" stroke-linecap="round" opacity="0.72" filter="url(#glow)"/>
  <path d="M12.8 13.4c6.2-3.8 14.8-4.95 23.4-3.1" stroke="#fff" stroke-opacity="0.18" stroke-width="1.1" stroke-linecap="round"/>
</svg>
